<svg width="40" height="48" viewBox="0 0 40 48" fill="none" xmlns="http://www.w3.org/2000/svg">
<g clip-path="url(#clip0_2131_244)" filter="url(#filter0_dddd_2131_244)">
<g filter="url(#filter1_ddddd_2131_244)">
<path d="M29.8985 15.0511H25.9523C25.9962 15.014 26.0412 14.978 26.0839 14.9386C26.4256 14.6351 26.7009 14.2643 26.8927 13.8495C27.0846 13.4347 27.1887 12.9848 27.1987 12.5279C27.2135 12.0281 27.126 11.5305 26.9415 11.0657C26.757 10.601 26.4795 10.1788 26.1259 9.82516C25.7724 9.47151 25.3503 9.19386 24.8856 9.00925C24.4209 8.82463 23.9233 8.73694 23.4235 8.75157C22.9664 8.76142 22.5163 8.86551 22.1013 9.05733C21.6863 9.24916 21.3153 9.52458 21.0117 9.86637C20.5915 10.3533 20.2499 10.9029 19.9992 11.4953C19.7486 10.9029 19.407 10.3533 18.9868 9.86637C18.6831 9.52458 18.3122 9.24916 17.8972 9.05733C17.4822 8.86551 17.0321 8.76142 16.575 8.75157C16.0751 8.73694 15.5776 8.82463 15.1129 9.00925C14.6481 9.19386 14.2261 9.47151 13.8725 9.82516C13.519 10.1788 13.2415 10.601 13.057 11.0657C12.8725 11.5305 12.785 12.0281 12.7997 12.5279C12.8097 12.9848 12.9139 13.4347 13.1057 13.8495C13.2975 14.2643 13.5729 14.6351 13.9145 14.9386C13.9573 14.9758 14.0023 15.0118 14.0461 15.0511H10.0999C9.62257 15.0511 9.16476 15.2408 8.82722 15.5783C8.48968 15.9158 8.30005 16.3736 8.30005 16.851V20.4508C8.30005 20.9281 8.48968 21.3859 8.82722 21.7235C9.16476 22.061 9.62257 22.2506 10.0999 22.2506V29.4501C10.0999 29.9275 10.2896 30.3853 10.6271 30.7228C10.9646 31.0604 11.4224 31.25 11.8998 31.25H18.6493C18.7687 31.25 18.8831 31.2026 18.9675 31.1182C19.0519 31.0338 19.0993 30.9194 19.0993 30.8V20.4508H10.0999V16.851H19.0993V20.4508H20.8992V16.851H29.8985V20.4508H20.8992V30.8C20.8992 30.9194 20.9466 31.0338 21.031 31.1182C21.1153 31.2026 21.2298 31.25 21.3491 31.25H28.0987C28.576 31.25 29.0338 31.0604 29.3714 30.7228C29.7089 30.3853 29.8985 29.9275 29.8985 29.4501V22.2506C30.3759 22.2506 30.8337 22.061 31.1712 21.7235C31.5088 21.3859 31.6984 20.9281 31.6984 20.4508V16.851C31.6984 16.3736 31.5088 15.9158 31.1712 15.5783C30.8337 15.2408 30.3759 15.0511 29.8985 15.0511ZM15.1069 13.5887C14.9496 13.4462 14.8234 13.2728 14.7363 13.0792C14.6492 12.8856 14.603 12.6761 14.6007 12.4638C14.595 12.2151 14.6391 11.9677 14.7302 11.7362C14.8213 11.5048 14.9577 11.2938 15.1314 11.1157C15.3051 10.9376 15.5126 10.7959 15.7418 10.699C15.9709 10.6022 16.2171 10.552 16.4659 10.5514H16.521C16.7332 10.5537 16.9427 10.5999 17.1363 10.687C17.3299 10.7741 17.5034 10.9003 17.6459 11.0577C18.5897 12.1241 18.9227 13.8925 19.0397 14.9859C17.9417 14.87 16.1745 14.537 15.1069 13.5887ZM24.8938 13.5887C23.8262 14.5337 22.0545 14.8666 20.9565 14.9836C21.0904 13.8013 21.4616 12.0701 22.3616 11.0588C22.5041 10.9014 22.6775 10.7752 22.8711 10.6881C23.0647 10.601 23.2742 10.5549 23.4865 10.5526H23.5416C23.7904 10.5541 24.0364 10.6053 24.2651 10.7032C24.4939 10.801 24.7008 10.9435 24.8738 11.1224C25.0468 11.3012 25.1823 11.5128 25.2725 11.7447C25.3626 11.9765 25.4056 12.2241 25.3989 12.4728C25.3952 12.6836 25.3483 12.8915 25.261 13.0834C25.1737 13.2754 25.048 13.4474 24.8915 13.5887H24.8938Z" fill="#D658B3"/>
<path d="M13.9758 12.4744C13.9795 12.7715 14.0444 13.0647 14.1663 13.3356C14.2888 13.6078 14.4662 13.8517 14.6874 14.052L14.6874 14.052L14.6919 14.056C15.3199 14.6139 16.1241 14.968 16.8804 15.1975C17.643 15.429 18.4011 15.547 18.9741 15.6074L19.7434 15.6886L19.6611 14.9194C19.6001 14.3491 19.4819 13.5922 19.251 12.8303C19.022 12.075 18.6693 11.271 18.1139 10.6434L18.114 10.6434L18.1092 10.6381C17.9089 10.4169 17.665 10.2395 17.3928 10.117C17.1207 9.99458 16.8261 9.9297 16.5277 9.92648V9.92644H16.521L16.4659 9.92644L16.4645 9.92645C16.1326 9.92716 15.8041 9.99411 15.4984 10.1234C15.1926 10.2527 14.9157 10.4417 14.684 10.6793C14.4522 10.9169 14.2702 11.1984 14.1486 11.5073C14.0275 11.8151 13.9687 12.1438 13.9758 12.4744ZM13.9758 12.4744C13.9758 12.4731 13.9758 12.4718 13.9758 12.4706L14.6007 12.4638L13.9759 12.4781C13.9759 12.4769 13.9758 12.4756 13.9758 12.4744ZM25.5486 14.574L24.2461 15.6761H25.9523H29.8985C30.2101 15.6761 30.509 15.7999 30.7293 16.0202C30.9496 16.2406 31.0734 16.5394 31.0734 16.851V20.4508C31.0734 20.7623 30.9496 21.0612 30.7293 21.2815C30.509 21.5018 30.2101 21.6256 29.8985 21.6256H29.2735V22.2506V29.4501C29.2735 29.7617 29.1498 30.0606 28.9294 30.2809C28.7091 30.5012 28.4103 30.625 28.0987 30.625H21.5242V21.0758H29.8985H30.5235V20.4508V16.851V16.226H29.8985H20.8992H20.2742V16.851V19.8258H19.7243V16.851V16.226H19.0993H10.0999H9.47492V16.851V20.4508V21.0758H10.0999H18.4743V30.625H11.8998C11.5882 30.625 11.2894 30.5012 11.069 30.2809C10.8487 30.0606 10.7249 29.7617 10.7249 29.4501V22.2506V21.6256H10.0999C9.78833 21.6256 9.48949 21.5018 9.26916 21.2815C9.04883 21.0612 8.92505 20.7623 8.92505 20.4508V16.851C8.92505 16.5394 9.04883 16.2406 9.26916 16.0202C9.48949 15.7999 9.78833 15.6761 10.0999 15.6761H14.0461H15.6783L14.4636 14.586C14.4334 14.5588 14.3715 14.5066 14.3413 14.4811C14.3343 14.4752 14.329 14.4708 14.3262 14.4683C14.0504 14.2225 13.8281 13.9226 13.673 13.5872C13.5173 13.2505 13.4327 12.8852 13.4246 12.5143L13.4246 12.5143L13.4245 12.5095C13.4122 12.0948 13.4848 11.6819 13.6379 11.2963C13.7909 10.9107 14.0212 10.5604 14.3145 10.267C14.6078 9.97362 14.958 9.74326 15.3436 9.59009C15.7292 9.43692 16.142 9.36417 16.5567 9.37632L16.5615 9.37643C16.9326 9.38442 17.298 9.46893 17.635 9.62466C17.9706 9.77977 18.2706 10.0022 18.5166 10.2782C18.8929 10.715 19.1989 11.2078 19.4236 11.7388L19.9992 13.099L20.5748 11.7388C20.7995 11.2078 21.1055 10.715 21.4818 10.2782C21.7278 10.0022 22.0279 9.77978 22.3635 9.62466C22.7004 9.46893 23.0659 9.38442 23.437 9.37644L23.4418 9.3763C23.8565 9.36417 24.2693 9.43692 24.6549 9.59009C25.0404 9.74326 25.3906 9.97362 25.6839 10.267C25.9773 10.5604 26.2075 10.9107 26.3606 11.2963C26.5136 11.6819 26.5863 12.0948 26.574 12.5095L26.5739 12.5143C26.5706 12.6655 26.5545 12.8159 26.5262 12.9637H25.9613C25.9997 12.8079 26.0207 12.6479 26.0237 12.4867C26.0323 12.1559 25.9749 11.8266 25.855 11.5182C25.7347 11.2088 25.5538 10.9265 25.323 10.6878C25.0923 10.4492 24.8162 10.2591 24.5109 10.1285C24.2057 9.99797 23.8775 9.92966 23.5455 9.92758V9.92757H23.5416H23.4865V9.92753L23.4797 9.92761C23.1813 9.93082 22.8868 9.99571 22.6146 10.1182C22.3425 10.2406 22.0986 10.418 21.8983 10.6393L21.8983 10.6392L21.8947 10.6433C21.3621 11.2418 21.0106 12.0211 20.7755 12.7698C20.5381 13.5256 20.4055 14.2954 20.3355 14.9133L20.2478 15.6877L21.0228 15.6051C21.5953 15.5441 22.3542 15.4259 23.1176 15.1949C23.8745 14.9658 24.6798 14.6128 25.308 14.0567L26.5227 12.9816C26.4812 13.19 26.4151 13.3933 26.3255 13.5872C26.1697 13.924 25.9462 14.225 25.6688 14.4714L25.6688 14.4713L25.6605 14.4789C25.6415 14.4964 25.6263 14.5091 25.6021 14.5292C25.5881 14.5409 25.5711 14.555 25.5486 14.574ZM16.575 8.75164L16.575 8.75157L16.575 8.75164Z" stroke="white" stroke-width="1.25"/>
</g>
</g>
<defs>
<filter id="filter0_dddd_2131_244" x="-6.25" y="-1.25" width="52.5" height="63.75" filterUnits="userSpaceOnUse" color-interpolation-filters="sRGB">
<feFlood flood-opacity="0" result="BackgroundImageFix"/>
<feColorMatrix in="SourceAlpha" type="matrix" values="0 0 0 0 0 0 0 0 0 0 0 0 0 0 0 0 0 0 127 0" result="hardAlpha"/>
<feOffset dy="1.25"/>
<feGaussianBlur stdDeviation="1.25"/>
<feColorMatrix type="matrix" values="0 0 0 0 0 0 0 0 0 0 0 0 0 0 0 0 0 0 0.08 0"/>
<feBlend mode="normal" in2="BackgroundImageFix" result="effect1_dropShadow_2131_244"/>
<feColorMatrix in="SourceAlpha" type="matrix" values="0 0 0 0 0 0 0 0 0 0 0 0 0 0 0 0 0 0 127 0" result="hardAlpha"/>
<feOffset dy="3.75"/>
<feGaussianBlur stdDeviation="1.875"/>
<feColorMatrix type="matrix" values="0 0 0 0 0 0 0 0 0 0 0 0 0 0 0 0 0 0 0.07 0"/>
<feBlend mode="normal" in2="effect1_dropShadow_2131_244" result="effect2_dropShadow_2131_244"/>
<feColorMatrix in="SourceAlpha" type="matrix" values="0 0 0 0 0 0 0 0 0 0 0 0 0 0 0 0 0 0 127 0" result="hardAlpha"/>
<feOffset dy="9.375"/>
<feGaussianBlur stdDeviation="2.8125"/>
<feColorMatrix type="matrix" values="0 0 0 0 0 0 0 0 0 0 0 0 0 0 0 0 0 0 0.04 0"/>
<feBlend mode="normal" in2="effect2_dropShadow_2131_244" result="effect3_dropShadow_2131_244"/>
<feColorMatrix in="SourceAlpha" type="matrix" values="0 0 0 0 0 0 0 0 0 0 0 0 0 0 0 0 0 0 127 0" result="hardAlpha"/>
<feOffset dy="16.25"/>
<feGaussianBlur stdDeviation="3.125"/>
<feColorMatrix type="matrix" values="0 0 0 0 0 0 0 0 0 0 0 0 0 0 0 0 0 0 0.01 0"/>
<feBlend mode="normal" in2="effect3_dropShadow_2131_244" result="effect4_dropShadow_2131_244"/>
<feBlend mode="normal" in="SourceGraphic" in2="effect4_dropShadow_2131_244" result="shape"/>
</filter>
<filter id="filter1_ddddd_2131_244" x="6.42505" y="8.125" width="27.1484" height="32.5" filterUnits="userSpaceOnUse" color-interpolation-filters="sRGB">
<feFlood flood-opacity="0" result="BackgroundImageFix"/>
<feColorMatrix in="SourceAlpha" type="matrix" values="0 0 0 0 0 0 0 0 0 0 0 0 0 0 0 0 0 0 127 0" result="hardAlpha"/>
<feOffset/>
<feGaussianBlur stdDeviation="0.3125"/>
<feColorMatrix type="matrix" values="0 0 0 0 0 0 0 0 0 0 0 0 0 0 0 0 0 0 0.29 0"/>
<feBlend mode="normal" in2="BackgroundImageFix" result="effect1_dropShadow_2131_244"/>
<feColorMatrix in="SourceAlpha" type="matrix" values="0 0 0 0 0 0 0 0 0 0 0 0 0 0 0 0 0 0 127 0" result="hardAlpha"/>
<feOffset dy="1.25"/>
<feGaussianBlur stdDeviation="0.625"/>
<feColorMatrix type="matrix" values="0 0 0 0 0 0 0 0 0 0 0 0 0 0 0 0 0 0 0.26 0"/>
<feBlend mode="normal" in2="effect1_dropShadow_2131_244" result="effect2_dropShadow_2131_244"/>
<feColorMatrix in="SourceAlpha" type="matrix" values="0 0 0 0 0 0 0 0 0 0 0 0 0 0 0 0 0 0 127 0" result="hardAlpha"/>
<feOffset dy="2.5"/>
<feGaussianBlur stdDeviation="0.9375"/>
<feColorMatrix type="matrix" values="0 0 0 0 0 0 0 0 0 0 0 0 0 0 0 0 0 0 0.15 0"/>
<feBlend mode="normal" in2="effect2_dropShadow_2131_244" result="effect3_dropShadow_2131_244"/>
<feColorMatrix in="SourceAlpha" type="matrix" values="0 0 0 0 0 0 0 0 0 0 0 0 0 0 0 0 0 0 127 0" result="hardAlpha"/>
<feOffset dy="5"/>
<feGaussianBlur stdDeviation="0.9375"/>
<feColorMatrix type="matrix" values="0 0 0 0 0 0 0 0 0 0 0 0 0 0 0 0 0 0 0.04 0"/>
<feBlend mode="normal" in2="effect3_dropShadow_2131_244" result="effect4_dropShadow_2131_244"/>
<feColorMatrix in="SourceAlpha" type="matrix" values="0 0 0 0 0 0 0 0 0 0 0 0 0 0 0 0 0 0 127 0" result="hardAlpha"/>
<feOffset dy="7.5"/>
<feGaussianBlur stdDeviation="0.9375"/>
<feColorMatrix type="matrix" values="0 0 0 0 0 0 0 0 0 0 0 0 0 0 0 0 0 0 0.01 0"/>
<feBlend mode="normal" in2="effect4_dropShadow_2131_244" result="effect5_dropShadow_2131_244"/>
<feBlend mode="normal" in="SourceGraphic" in2="effect5_dropShadow_2131_244" result="shape"/>
</filter>
<clipPath id="clip0_2131_244">
<rect width="40" height="40" fill="white"/>
</clipPath>
</defs>
</svg>
