<svg width="100" height="48" viewBox="0 0 100 48" fill="none" xmlns="http://www.w3.org/2000/svg">
<path d="M22.6252 20.097C22.7546 20.0395 22.8911 19.9748 23.0349 19.9029C23.1499 19.8454 23.2577 19.7951 23.3583 19.752C23.459 19.6945 23.574 19.6441 23.7034 19.601L23.7896 19.3854C23.8327 19.3135 23.8687 19.2416 23.8974 19.1698C24.1849 18.5085 24.4581 17.8041 24.7168 17.0565C24.99 16.2946 25.0978 15.4537 25.0403 14.5336C25.1265 14.3468 25.1912 14.1742 25.2344 14.0161C25.2919 13.858 25.335 13.6927 25.3637 13.5202C25.3925 13.3333 25.3997 13.1392 25.3853 12.9379C25.3853 12.7223 25.3781 12.4276 25.3637 12.0539C25.45 11.9101 25.5219 11.716 25.5794 11.4716C25.6512 11.2273 25.6728 11.0044 25.6441 10.8032L25.5794 10.3935L25.9891 10.4366C25.9603 10.3791 25.9388 10.3288 25.9244 10.2857L25.8813 10.1563C25.8237 10.0269 25.7734 9.90471 25.7303 9.7897C25.7016 9.66032 25.7016 9.52375 25.7303 9.38C25.4715 9.20749 25.2919 8.95592 25.1912 8.62528C25.1337 8.51028 24.9972 8.39527 24.7815 8.28027C24.7528 8.26589 24.7312 8.25152 24.7168 8.23714C24.7025 8.22276 24.6665 8.19401 24.609 8.15089C24.494 8.05026 24.4365 7.92807 24.4365 7.78431C24.4078 7.76993 24.3718 7.75556 24.3287 7.74118C24.2999 7.72681 24.264 7.70524 24.2209 7.67649C24.0627 7.60462 23.8974 7.53274 23.7249 7.46086C23.5524 7.38898 23.3871 7.35304 23.229 7.35304C23.0708 7.35304 22.9199 7.39617 22.7761 7.48242C22.5317 8.0862 22.2083 8.58934 21.8058 8.99186C21.4033 9.39437 20.9864 9.76814 20.5551 10.1132C20.3251 10.3 20.1023 10.4869 19.8866 10.6738C19.6854 10.8607 19.4554 11.0763 19.1966 11.3207C19.0816 11.3351 18.9666 11.3782 18.8516 11.4501C18.7366 11.5076 18.6216 11.5795 18.5066 11.6657C18.3341 11.7807 18.1472 11.8957 17.9459 12.0107C17.7591 12.1114 17.5506 12.1617 17.3206 12.1617C17.1193 12.1617 16.8893 12.061 16.6306 11.8598C16.6018 11.7304 16.5874 11.6154 16.5874 11.5148C16.5874 11.3998 16.5946 11.2919 16.609 11.1913C16.6521 10.9613 16.6378 10.7816 16.5659 10.6522L16.5443 10.4366C16.6162 10.2497 16.6449 10.07 16.6306 9.89752C16.6306 9.72501 16.5946 9.55969 16.5228 9.40156C16.4653 9.22905 16.379 9.06373 16.264 8.9056C16.1634 8.7331 16.0556 8.56059 15.9405 8.38808C15.8543 8.22995 15.7609 8.09338 15.6602 7.97838C15.5308 7.94963 15.4086 7.92088 15.2936 7.89213C15.193 7.849 15.0636 7.80587 14.9055 7.76275C14.7905 7.76275 14.7042 7.69087 14.6467 7.54711L14.6036 7.30992C14.4599 7.13741 14.2299 6.98647 13.9136 6.85709C13.4536 7.02959 13.1014 7.26679 12.857 7.56868C12.627 7.85619 12.3826 8.22276 12.1238 8.66841C12.0376 8.81216 11.9441 8.96311 11.8435 9.12124C11.7573 9.26499 11.6566 9.42312 11.5416 9.59563C11.3979 9.81126 11.2182 10.1275 11.0025 10.5444C10.8013 10.9613 10.5856 11.4213 10.3556 11.9245C10.1256 12.4132 9.89562 12.9236 9.66561 13.4555C9.4356 13.973 9.22716 14.4474 9.04027 14.8786C8.86777 15.3099 8.72401 15.6621 8.60901 15.9353C8.494 16.2084 8.4365 16.3521 8.4365 16.3665C8.30712 16.6684 8.23524 17.0278 8.22087 17.4447C8.22087 17.8472 8.25681 18.2497 8.32868 18.6522C8.41494 19.0547 8.52994 19.4357 8.6737 19.7951C8.83183 20.1401 9.00434 20.4132 9.19122 20.6145C9.44998 20.6576 9.63686 20.6792 9.75186 20.6792C9.99625 20.6792 10.1903 20.6001 10.3341 20.442C10.4778 20.2982 10.6719 19.9748 10.9163 19.4716C10.945 19.3854 10.9594 19.2919 10.9594 19.1913C10.9738 19.1194 10.981 19.0476 10.981 18.9757C10.9954 18.9038 11.0169 18.8319 11.0457 18.7601C11.0888 18.6882 11.1391 18.6235 11.1966 18.566C11.2685 18.4941 11.3332 18.4222 11.3907 18.3503C11.4913 18.2785 11.556 18.1778 11.5847 18.0485C11.5272 17.9478 11.5129 17.84 11.5416 17.725C11.6135 17.5094 11.7213 17.3153 11.8651 17.1428C12.0088 16.9703 12.1454 16.8194 12.2748 16.69C12.2604 16.5175 12.282 16.3162 12.3395 16.0862C12.4113 15.8418 12.4904 15.6046 12.5767 15.3746C12.6629 15.1446 12.7492 14.9433 12.8354 14.7708C12.9217 14.584 12.9864 14.4618 13.0295 14.4043L13.202 14.1239L13.3745 14.4474C13.9783 15.6693 14.8839 16.2803 16.0915 16.2803C16.5659 16.2803 17.0475 16.2012 17.5362 16.0431C18.0394 15.8849 18.5281 15.6837 19.0025 15.4393C19.4913 15.1805 19.9585 14.9074 20.4042 14.6199C20.8498 14.318 21.2595 14.0305 21.6333 13.7574C21.662 13.6711 21.698 13.6208 21.7411 13.6064C21.7986 13.592 21.8561 13.5848 21.9136 13.5848L22.1077 13.8005C22.1077 13.9299 22.0717 14.0161 21.9998 14.0592C21.5398 15.6549 21.317 16.9703 21.3314 18.0053C21.3601 19.0404 21.6548 19.7663 22.2155 20.1832C22.3736 20.1832 22.5102 20.1545 22.6252 20.097Z" fill="#D658B3"/>
<path d="M38.1292 8.38808C38.1436 8.33058 38.1436 8.25152 38.1292 8.15089C37.8561 8.03588 37.6045 7.89931 37.3745 7.74118C37.1589 7.56868 36.9792 7.36023 36.8354 7.11585C36.8498 7.24523 36.8139 7.28835 36.7276 7.24523C36.6557 7.18772 36.591 7.22366 36.5335 7.35304C36.4185 7.35304 36.2963 7.28835 36.167 7.15897C35.5632 7.27398 35.0241 7.36023 34.5497 7.41773C34.0753 7.47524 33.6153 7.53993 33.1697 7.6118C32.7384 7.66931 32.2928 7.74837 31.8327 7.849C31.3871 7.94963 30.8768 8.09338 30.3017 8.28027C29.9855 8.35214 29.6836 8.41683 29.3961 8.47434C29.1086 8.53184 28.8426 8.60372 28.5982 8.68997C28.3538 8.77622 28.1238 8.89123 27.9082 9.03498C27.7069 9.16436 27.5344 9.33687 27.3907 9.5525C27.4626 9.79689 27.5129 10.0413 27.5416 10.2857C27.5704 10.5157 27.6063 10.7457 27.6494 10.9757C27.6926 11.1913 27.7573 11.4141 27.8435 11.6441C27.9441 11.8598 28.0951 12.061 28.2963 12.2479C28.1957 12.5211 28.0879 12.7726 27.9729 13.0026C27.8723 13.2183 27.7644 13.4339 27.6494 13.6495C27.5488 13.8652 27.4482 14.088 27.3476 14.318C27.2469 14.548 27.1535 14.7924 27.0672 15.0512C26.9666 15.0368 26.9091 15.0655 26.8947 15.1374C26.8804 15.1949 26.8372 15.2309 26.7653 15.2452C26.8085 15.4465 26.7582 15.6334 26.6144 15.8059C26.485 15.9784 26.3988 16.1724 26.3556 16.3881C26.3125 16.5893 26.2981 16.8122 26.3125 17.0565C26.3413 17.3009 26.3772 17.5525 26.4203 17.8113C26.4635 18.0556 26.5066 18.2928 26.5497 18.5229C26.5928 18.7529 26.6216 18.9613 26.636 19.1482C26.7941 19.2201 26.8875 19.3279 26.9163 19.4716C26.9594 19.601 27.0385 19.716 27.1535 19.8167C27.4266 20.0898 27.7788 20.2767 28.2101 20.3773C28.6414 20.4923 29.0942 20.557 29.5686 20.5714C30.043 20.5857 30.5102 20.5642 30.9702 20.5067C31.4302 20.4492 31.8255 20.3845 32.1562 20.3126C32.2712 20.3126 32.3718 20.327 32.4581 20.3557C32.5443 20.3989 32.6521 20.4061 32.7815 20.3773C33.3134 20.2767 33.795 20.1904 34.2263 20.1185C34.6719 20.0467 35.0744 19.946 35.4338 19.8167C35.7932 19.6873 36.1095 19.5004 36.3826 19.256C36.6701 18.9972 36.9217 18.6307 37.1373 18.1563C37.0511 18.1707 36.9864 18.1563 36.9432 18.1132C36.9145 18.0556 36.8929 17.991 36.8786 17.9191C36.8642 17.8472 36.8426 17.7753 36.8139 17.7034C36.7995 17.6172 36.7636 17.5453 36.7061 17.4878C36.5767 17.5022 36.4689 17.4734 36.3826 17.4016C36.2963 17.3297 36.2101 17.2506 36.1238 17.1644C36.052 17.0637 35.9729 16.9631 35.8866 16.8625C35.8004 16.7475 35.6998 16.6684 35.5848 16.6253C35.2541 16.7403 34.8875 16.8265 34.485 16.884C34.0969 16.9272 33.7591 17.0278 33.4715 17.1859C33.0115 17.1716 32.6306 17.1859 32.3287 17.2291C32.0268 17.2578 31.7321 17.2937 31.4446 17.3369C31.1571 17.3656 30.848 17.3872 30.5174 17.4016C30.2011 17.4159 29.7986 17.3872 29.3098 17.3153C29.4536 16.9272 29.6189 16.5606 29.8058 16.2156C29.9927 15.8706 30.2011 15.5471 30.4311 15.2452C30.6036 15.3027 30.7977 15.3315 31.0133 15.3315C31.2433 15.3171 31.4374 15.3459 31.5955 15.4177C31.7105 15.3459 31.8687 15.3243 32.0699 15.353C32.2856 15.3818 32.4509 15.3602 32.5659 15.2884C32.6234 15.3315 32.6665 15.353 32.6953 15.353H32.8678C33.2128 15.3674 33.5219 15.3387 33.795 15.2668C34.0825 15.1805 34.3485 15.0727 34.5928 14.9433C34.8516 14.814 35.096 14.6702 35.326 14.5121C35.556 14.3396 35.786 14.1742 36.016 14.0161C36.0735 13.8724 36.0879 13.7358 36.0591 13.6064C36.0448 13.4627 36.0088 13.3333 35.9513 13.2183C35.8076 13.2326 35.6782 13.2111 35.5632 13.1536C35.4626 13.0817 35.3619 12.9955 35.2613 12.8948L34.9594 12.5929C34.8588 12.4779 34.7582 12.3845 34.6575 12.3126C34.6432 12.2551 34.6503 12.2192 34.6791 12.2048C34.7078 12.176 34.715 12.1257 34.7007 12.0539C34.1113 12.0682 33.5075 12.1042 32.8893 12.1617C32.2856 12.2192 31.7321 12.2264 31.229 12.1832C31.1858 12.097 31.1643 11.9892 31.1643 11.8598C31.1786 11.716 31.1571 11.5795 31.0996 11.4501C31.229 11.407 31.3583 11.371 31.4877 11.3423C31.6171 11.2991 31.7249 11.2344 31.8112 11.1482C32.0987 11.1769 32.3143 11.1554 32.4581 11.0835C32.6162 11.0116 32.7887 11.0116 32.9756 11.0835C33.45 10.796 33.9244 10.6091 34.3988 10.5229C34.8875 10.4366 35.3619 10.3575 35.822 10.2857C36.282 10.1994 36.7061 10.07 37.0942 9.89752C37.4967 9.71064 37.8489 9.37281 38.1508 8.88404C38.122 8.78341 38.1077 8.71153 38.1077 8.66841V8.51746C38.122 8.47434 38.1292 8.43121 38.1292 8.38808Z" fill="#D658B3"/>
<path fill-rule="evenodd" clip-rule="evenodd" d="M52.5335 19.9029C52.3898 19.9748 52.2532 20.0395 52.1238 20.097C52.0088 20.1545 51.8723 20.1832 51.7141 20.1832C51.1535 19.7663 50.8588 19.0404 50.83 18.0053C50.8157 16.9703 51.0385 15.6549 51.4985 14.0592C51.5704 14.0161 51.6063 13.9299 51.6063 13.8005L51.4123 13.5848C51.3548 13.5848 51.2972 13.592 51.2397 13.6064C51.1966 13.6208 51.1607 13.6711 51.1319 13.7574C50.7582 14.0305 50.3485 14.318 49.9028 14.6199C49.4572 14.9074 48.99 15.1805 48.5012 15.4393C48.0268 15.6837 47.538 15.8849 47.0349 16.0431C46.5461 16.2012 46.0645 16.2803 45.5901 16.2803C44.3826 16.2803 43.4769 15.6693 42.8732 14.4474L42.7007 14.1239L42.5282 14.4043C42.485 14.4618 42.4203 14.584 42.3341 14.7708C42.2478 14.9433 42.1616 15.1446 42.0753 15.3746C41.9891 15.6046 41.91 15.8418 41.8381 16.0862C41.7806 16.3162 41.7591 16.5175 41.7734 16.69C41.6441 16.8194 41.5075 16.9703 41.3637 17.1428C41.22 17.3153 41.1122 17.5094 41.0403 17.725C41.0115 17.84 41.0259 17.9478 41.0834 18.0485C41.0547 18.1778 40.99 18.2785 40.8893 18.3503C40.8318 18.4222 40.7671 18.4941 40.6953 18.566C40.6378 18.6235 40.5875 18.6882 40.5443 18.7601C40.5156 18.8319 40.494 18.9038 40.4796 18.9757C40.4796 19.0476 40.4725 19.1194 40.4581 19.1913C40.4581 19.2919 40.4437 19.3854 40.4149 19.4716C40.1706 19.9748 39.9765 20.2982 39.8327 20.442C39.689 20.6001 39.4949 20.6792 39.2505 20.6792C39.1355 20.6792 38.9486 20.6576 38.6899 20.6145C38.503 20.4132 38.3305 20.1401 38.1724 19.7951C38.0286 19.4357 37.9136 19.0547 37.8273 18.6522C37.7555 18.2497 37.7195 17.8472 37.7195 17.4447C37.7339 17.0278 37.8058 16.6684 37.9352 16.3665C37.9352 16.3521 37.9927 16.2084 38.1077 15.9353C38.2227 15.6621 38.3664 15.3099 38.5389 14.8786C38.7258 14.4474 38.9343 13.973 39.1643 13.4555C39.3943 12.9236 39.6243 12.4132 39.8543 11.9245C40.0843 11.4213 40.2999 10.9613 40.5012 10.5444C40.7168 10.1275 40.8965 9.81126 41.0403 9.59563C41.1553 9.42312 41.2559 9.26499 41.3422 9.12124C41.4428 8.96311 41.5362 8.81216 41.6225 8.66841C41.8813 8.22276 42.1256 7.85619 42.3556 7.56868C42.6 7.26679 42.9522 7.02959 43.4123 6.85709C43.7285 6.98647 43.9585 7.13741 44.1023 7.30992L44.1454 7.54711C44.2029 7.69087 44.2892 7.76275 44.4042 7.76275C44.5623 7.80587 44.6917 7.849 44.7923 7.89213C44.9073 7.92088 45.0295 7.94963 45.1589 7.97838C45.2595 8.09338 45.353 8.22995 45.4392 8.38808C45.5542 8.56059 45.662 8.7331 45.7627 8.9056C45.8777 9.06373 45.9639 9.22905 46.0214 9.40156C46.0933 9.55969 46.1292 9.72501 46.1292 9.89752C46.1436 10.07 46.1149 10.2497 46.043 10.4366L46.0645 10.6522C46.1364 10.7816 46.1508 10.9613 46.1077 11.1913C46.0933 11.2919 46.0861 11.3998 46.0861 11.5148C46.0861 11.6154 46.1005 11.7304 46.1292 11.8598C46.388 12.061 46.618 12.1617 46.8193 12.1617C47.0493 12.1617 47.2577 12.1114 47.4446 12.0107C47.6459 11.8957 47.8327 11.7807 48.0052 11.6657C48.1203 11.5795 48.2353 11.5076 48.3503 11.4501C48.4653 11.3782 48.5803 11.3351 48.6953 11.3207C48.954 11.0763 49.184 10.8607 49.3853 10.6738C49.6009 10.4869 49.8238 10.3 50.0538 10.1132C50.485 9.76814 50.9019 9.39437 51.3044 8.99186C51.707 8.58934 52.0304 8.0862 52.2748 7.48242C52.4185 7.39617 52.5695 7.35304 52.7276 7.35304C52.8857 7.35304 53.0511 7.38898 53.2236 7.46086C53.3961 7.53274 53.5614 7.60462 53.7195 7.67649C53.7627 7.70524 53.7986 7.72681 53.8273 7.74118C53.8705 7.75556 53.9064 7.76993 53.9352 7.78431C53.9352 7.92807 53.9927 8.05026 54.1077 8.15089C54.1652 8.19401 54.2011 8.22276 54.2155 8.23714C54.2299 8.25152 54.2514 8.26589 54.2802 8.28027C54.4958 8.39527 54.6324 8.51028 54.6899 8.62528C54.7684 8.8833 54.8951 9.09318 55.0699 9.2549C55.1862 9.05419 55.3327 8.88025 55.5093 8.7331C55.7681 8.50309 56.0627 8.31621 56.3934 8.17245C56.724 8.01432 57.0762 7.89213 57.45 7.80587C57.8238 7.70524 58.1831 7.6118 58.5282 7.52555C59.0888 7.42492 59.6495 7.30992 60.2101 7.18054C60.7707 7.05116 61.3745 7.00803 62.0214 7.05116C62.1077 7.00803 62.2083 6.98647 62.3233 6.98647C62.4527 6.97209 62.5821 6.9649 62.7114 6.9649H63.078C63.2074 6.95053 63.3152 6.92178 63.4015 6.87865C63.4734 6.9649 63.574 7.02241 63.7034 7.05116C63.8471 7.06553 63.9981 7.13022 64.1562 7.24523C64.3287 7.11585 64.4725 7.0871 64.5875 7.15897C64.7168 7.23085 64.8318 7.30992 64.9325 7.39617C65.0331 7.48242 65.1265 7.56149 65.2128 7.63337C65.3134 7.70524 65.4141 7.74118 65.5147 7.74118C65.6153 7.87056 65.7375 7.99276 65.8813 8.10776C66.0394 8.22276 66.1831 8.34496 66.3125 8.47434C66.4563 8.58934 66.5713 8.71872 66.6575 8.86248C66.7582 9.00623 66.8085 9.17155 66.8085 9.35843C66.7941 9.43031 66.8157 9.47344 66.8732 9.48781C66.9307 9.50219 66.9738 9.53094 67.0026 9.57407C67.0169 10.0197 66.945 10.4078 66.7869 10.7385C66.6432 11.0547 66.4563 11.3494 66.2263 11.6226C66.0106 11.8957 65.7663 12.1545 65.4931 12.3989C65.2344 12.6432 64.9972 12.902 64.7815 13.1751C64.9253 13.362 65.0906 13.5273 65.2775 13.6711L65.8381 14.1024C66.0394 14.2461 66.2263 14.3971 66.3988 14.5552C66.5713 14.7133 66.715 14.9002 66.83 15.1158C66.8588 15.1446 66.8947 15.1733 66.9379 15.2021C66.981 15.2165 67.0241 15.238 67.0672 15.2668C67.1104 15.4105 67.1679 15.5615 67.2397 15.7196C67.3116 15.8634 67.3691 16.0071 67.4123 16.1509C67.4698 16.2803 67.5057 16.4025 67.5201 16.5175C67.5345 16.6181 67.5057 16.7043 67.4338 16.7762C67.5201 16.8194 67.5704 16.8912 67.5848 16.9919C67.5991 17.0925 67.5991 17.1716 67.5848 17.2291C67.326 17.5597 67.1463 17.7897 67.0457 17.9191C66.945 18.0485 66.8732 18.1491 66.83 18.221C66.7869 18.2785 66.7366 18.3288 66.6791 18.3719C66.636 18.415 66.5282 18.5085 66.3557 18.6522C65.7088 19.0404 65.0403 19.3854 64.3503 19.6873C63.6746 19.9892 62.963 20.1976 62.2155 20.3126C62.1005 20.4707 61.8777 20.5786 61.547 20.6361C61.2308 20.7079 60.9361 20.7726 60.6629 20.8301C60.6054 20.8014 60.5695 20.7583 60.5551 20.7008C60.5551 20.6576 60.5264 20.6217 60.4689 20.5929C60.4545 20.7367 60.3898 20.8086 60.2748 20.8086C60.1598 20.8229 60.016 20.7942 59.8435 20.7223C59.6854 20.6648 59.5129 20.5786 59.326 20.4636C59.1535 20.3629 59.0026 20.2695 58.8732 20.1832C58.8013 20.2982 58.7222 20.4132 58.636 20.5282C58.5641 20.6432 58.4707 20.7223 58.3557 20.7654C58.1975 20.7367 58.0753 20.7151 57.9891 20.7008C57.9172 20.6864 57.8453 20.7151 57.7734 20.787C57.6872 20.7439 57.6153 20.6936 57.5578 20.6361C57.5147 20.5786 57.4644 20.5211 57.4069 20.4636C57.3637 20.4204 57.3062 20.3773 57.2344 20.3342C57.1769 20.291 57.0906 20.2551 56.9756 20.2264C57.0043 20.1689 56.99 20.0826 56.9325 19.9676C56.875 19.8382 56.7887 19.7592 56.6737 19.7304C56.7312 19.6298 56.7025 19.5076 56.5875 19.3638C56.4868 19.2057 56.4078 19.0332 56.3503 18.8463C56.379 18.6882 56.4006 18.5157 56.4149 18.3288C56.4293 18.1419 56.5156 18.0341 56.6737 18.0053C56.6593 17.9047 56.6378 17.8185 56.609 17.7466L56.5228 17.5309C56.6234 17.4447 56.6953 17.3441 56.7384 17.2291C56.7815 17.0997 56.8175 16.9703 56.8462 16.8409C56.875 16.7115 56.9109 16.5822 56.954 16.4528C56.9972 16.3234 57.0762 16.2156 57.1912 16.1293C57.3206 15.6981 57.4212 15.3818 57.4931 15.1805C57.565 14.9649 57.6153 14.7565 57.6441 14.5552C57.6872 14.3539 57.7303 14.1383 57.7734 13.9083C57.8309 13.6783 57.9244 13.3908 58.0538 13.0458C58.0394 12.8301 58.061 12.6432 58.1185 12.4851C58.176 12.3126 58.2335 12.1473 58.291 11.9892C58.3628 11.8167 58.4203 11.6441 58.4635 11.4716C58.5066 11.2848 58.4994 11.0691 58.4419 10.8247C58.2406 10.8391 58.0969 10.911 58.0106 11.0404C57.9244 11.1554 57.8669 11.3135 57.8381 11.5148C57.7231 11.6298 57.5794 11.6873 57.4069 11.6873C57.2487 11.6729 57.105 11.6873 56.9756 11.7304C56.4725 11.5291 56.0556 11.2416 55.7249 10.8679C55.6024 10.7294 55.4887 10.582 55.384 10.4257L55.078 10.3935L55.1427 10.8032C55.1715 11.0044 55.1499 11.2273 55.078 11.4716C55.0205 11.716 54.9486 11.9101 54.8624 12.0539C54.8768 12.4276 54.8839 12.7223 54.8839 12.9379C54.8983 13.1392 54.8911 13.3333 54.8624 13.5202C54.8336 13.6927 54.7905 13.858 54.733 14.0161C54.6899 14.1742 54.6252 14.3468 54.5389 14.5336C54.5964 15.4537 54.4886 16.2946 54.2155 17.0565C53.9567 17.8041 53.6836 18.5085 53.3961 19.1698C53.3673 19.2416 53.3314 19.3135 53.2883 19.3854L53.202 19.601C53.0726 19.6441 52.9576 19.6945 52.857 19.752C52.7564 19.7951 52.6486 19.8454 52.5335 19.9029ZM61.4392 9.76814C62.1724 9.61001 62.9055 9.54532 63.6387 9.57407C63.2793 10.0053 62.884 10.4007 62.4527 10.7601C62.0214 11.1051 61.5255 11.3926 60.9648 11.6226C60.8211 11.3494 60.6198 11.1338 60.361 10.9757C60.1167 10.8176 59.8723 10.6379 59.6279 10.4366C60.1167 10.1491 60.7204 9.92627 61.4392 9.76814ZM64.1562 16.1078C64.0412 16.194 63.9621 16.309 63.919 16.4528C63.5596 16.5822 63.2146 16.7259 62.884 16.884C62.5677 17.0278 62.2371 17.1716 61.892 17.3153C61.5614 17.4591 61.2164 17.5956 60.857 17.725C60.4976 17.84 60.1023 17.9263 59.671 17.9838C59.8291 17.5238 59.9945 17.0494 60.167 16.5606C60.3395 16.0718 60.5048 15.619 60.6629 15.2021C60.9792 15.159 61.2883 15.0871 61.5902 14.9865C61.9064 14.8858 62.2299 14.814 62.5605 14.7708C62.9055 14.7133 63.2649 14.7133 63.6387 14.7708C64.0268 14.814 64.4509 14.9577 64.9109 15.2021C64.9253 15.3746 64.8893 15.5112 64.8031 15.6118C64.7168 15.6981 64.6162 15.7843 64.5012 15.8706C64.3862 15.9424 64.2712 16.0215 64.1562 16.1078Z" fill="#D658B3"/>
<path d="M80.2856 8.15089C80.3 8.25152 80.3 8.33058 80.2856 8.38808C80.2856 8.43121 80.2784 8.47434 80.264 8.51746V8.66841C80.264 8.71153 80.2784 8.78341 80.3071 8.88404C80.0052 9.37281 79.653 9.71064 79.2505 9.89752C78.8624 10.07 78.4383 10.1994 77.9783 10.2857C77.5183 10.3575 77.0439 10.4366 76.5551 10.5229C76.0807 10.6091 75.6063 10.796 75.1319 11.0835C74.9451 11.0116 74.7725 11.0116 74.6144 11.0835C74.4707 11.1554 74.255 11.1769 73.9675 11.1482C73.8813 11.2344 73.7734 11.2991 73.6441 11.3423C73.5147 11.371 73.3853 11.407 73.2559 11.4501C73.3134 11.5795 73.335 11.716 73.3206 11.8598C73.3206 11.9892 73.3422 12.097 73.3853 12.1832C73.8885 12.2264 74.4419 12.2192 75.0457 12.1617C75.6638 12.1042 76.2676 12.0682 76.857 12.0539C76.8714 12.1257 76.8642 12.176 76.8354 12.2048C76.8067 12.2192 76.7995 12.2551 76.8139 12.3126C76.9145 12.3845 77.0151 12.4779 77.1158 12.5929L77.4176 12.8948C77.5183 12.9955 77.6189 13.0817 77.7195 13.1536C77.8345 13.2111 77.9639 13.2326 78.1077 13.2183C78.1652 13.3333 78.2011 13.4627 78.2155 13.6064C78.2442 13.7358 78.2299 13.8724 78.1724 14.0161C77.9424 14.1742 77.7123 14.3396 77.4823 14.5121C77.2523 14.6702 77.0079 14.814 76.7492 14.9433C76.5048 15.0727 76.2389 15.1805 75.9513 15.2668C75.6782 15.3387 75.3691 15.3674 75.0241 15.353H74.8516C74.8229 15.353 74.7797 15.3315 74.7222 15.2884C74.6072 15.3602 74.4419 15.3818 74.2263 15.353C74.025 15.3243 73.8669 15.3459 73.7519 15.4177C73.5938 15.3459 73.3997 15.3171 73.1697 15.3315C72.954 15.3315 72.76 15.3027 72.5875 15.2452C72.3575 15.5471 72.149 15.8706 71.9621 16.2156C71.7752 16.5606 71.6099 16.9272 71.4662 17.3153C71.9549 17.3872 72.3575 17.4159 72.6737 17.4016C73.0043 17.3872 73.3134 17.3656 73.6009 17.3369C73.8885 17.2937 74.1832 17.2578 74.485 17.2291C74.7869 17.1859 75.1679 17.1716 75.6279 17.1859C75.9154 17.0278 76.2532 16.9272 76.6414 16.884C77.0439 16.8265 77.4105 16.7403 77.7411 16.6253C77.8561 16.6684 77.9567 16.7475 78.043 16.8625C78.1292 16.9631 78.2083 17.0637 78.2802 17.1644C78.3664 17.2506 78.4527 17.3297 78.5389 17.4016C78.6252 17.4734 78.733 17.5022 78.8624 17.4878C78.9199 17.5453 78.9558 17.6172 78.9702 17.7034C78.999 17.7753 79.0205 17.8472 79.0349 17.9191C79.0493 17.991 79.0708 18.0556 79.0996 18.1132C79.1427 18.1563 79.2074 18.1707 79.2937 18.1563C79.078 18.6307 78.8265 18.9972 78.5389 19.256C78.2658 19.5004 77.9495 19.6873 77.5902 19.8167C77.2308 19.946 76.8283 20.0467 76.3826 20.1185C75.9513 20.1904 75.4698 20.2767 74.9379 20.3773C74.8085 20.4061 74.7007 20.3989 74.6144 20.3557C74.5282 20.327 74.4275 20.3126 74.3125 20.3126C73.9819 20.3845 73.5866 20.4492 73.1265 20.5067C72.6665 20.5642 72.1993 20.5857 71.7249 20.5714C71.2505 20.557 70.7977 20.4923 70.3664 20.3773C69.9352 20.2767 69.583 20.0898 69.3098 19.8167C69.1948 19.716 69.1158 19.601 69.0726 19.4716C69.0439 19.3279 68.9504 19.2201 68.7923 19.1482C68.7779 18.9613 68.7492 18.7529 68.7061 18.5229C68.6629 18.2928 68.6198 18.0556 68.5767 17.8113C68.5336 17.5525 68.4976 17.3009 68.4689 17.0565C68.4545 16.8122 68.4689 16.5893 68.512 16.3881C68.5551 16.1724 68.6414 15.9784 68.7707 15.8059C68.9145 15.6334 68.9648 15.4465 68.9217 15.2452C68.9936 15.2309 69.0367 15.1949 69.0511 15.1374C69.0654 15.0655 69.123 15.0368 69.2236 15.0512C69.3098 14.7924 69.4033 14.548 69.5039 14.318C69.6045 14.088 69.7052 13.8652 69.8058 13.6495C69.9208 13.4339 70.0286 13.2183 70.1292 13.0026C70.2442 12.7726 70.3521 12.5211 70.4527 12.2479C70.2514 12.061 70.1005 11.8598 69.9999 11.6441C69.9136 11.4141 69.8489 11.1913 69.8058 10.9757C69.7627 10.7457 69.7267 10.5157 69.698 10.2857C69.6692 10.0413 69.6189 9.79689 69.547 9.5525C69.6908 9.33687 69.8633 9.16436 70.0646 9.03498C70.2802 8.89123 70.5102 8.77622 70.7546 8.68997C70.999 8.60372 71.2649 8.53184 71.5524 8.47434C71.8399 8.41683 72.1418 8.35214 72.4581 8.28027C73.0331 8.09338 73.5434 7.94963 73.9891 7.849C74.4491 7.74837 74.8947 7.66931 75.326 7.6118C75.7717 7.53993 76.2317 7.47524 76.7061 7.41773C77.1805 7.36023 77.7195 7.27398 78.3233 7.15897C78.4527 7.28835 78.5749 7.35304 78.6899 7.35304C78.7474 7.22366 78.8121 7.18772 78.884 7.24523C78.9702 7.28835 79.0061 7.24523 78.9918 7.11585C79.1355 7.36023 79.3152 7.56868 79.5309 7.74118C79.7609 7.89931 80.0124 8.03588 80.2856 8.15089Z" fill="#D658B3"/>
<path fill-rule="evenodd" clip-rule="evenodd" d="M82.5928 19.3638C82.7222 19.0619 82.866 18.6235 83.0241 18.0485C83.2973 18.2928 83.5273 18.5013 83.7141 18.6738C83.9154 18.8463 84.131 19.0116 84.3611 19.1698C84.6054 19.3135 84.8858 19.4645 85.202 19.6226C85.5327 19.7663 85.9567 19.9388 86.4743 20.1401C87.5093 20.5426 88.3646 20.8158 89.0403 20.9595C89.7159 21.1176 90.2766 21.1105 90.7222 20.9379C90.8516 20.9236 90.9522 20.8804 91.0241 20.8086C91.096 20.7511 91.1607 20.6792 91.2182 20.5929L91.3907 20.3342C91.4482 20.2479 91.5201 20.176 91.6063 20.1185C91.5488 20.1042 91.4913 20.1042 91.4338 20.1185C91.3907 20.1185 91.3619 20.097 91.3476 20.0539C91.4338 19.9532 91.4841 19.8238 91.4985 19.6657C91.5129 19.4932 91.5057 19.3207 91.477 19.1482C91.4482 18.9613 91.3835 18.7816 91.2829 18.6091C91.1966 18.4222 91.0888 18.2641 90.9594 18.1347C90.6288 18.106 90.37 18.0844 90.1832 18.07L89.6656 17.9838C89.4931 17.9406 89.299 17.8975 89.0834 17.8544C88.8822 17.7969 88.5947 17.725 88.2209 17.6388C87.8471 17.5525 87.5524 17.4806 87.3368 17.4231C87.1355 17.3512 86.9415 17.2722 86.7546 17.1859C86.5821 17.0997 86.3952 16.9919 86.1939 16.8625C85.9927 16.7331 85.7195 16.5606 85.3745 16.345C85.3889 16.2731 85.3673 16.2371 85.3098 16.2371C85.2667 16.2371 85.2451 16.2084 85.2451 16.1509C85.7195 15.9496 86.2514 15.7627 86.8408 15.5902C87.4302 15.4177 87.9837 15.2093 88.5012 14.9649C89.0187 14.7061 89.4572 14.3827 89.8166 13.9946C90.1903 13.6064 90.3988 13.0961 90.4419 12.4636C90.4563 12.3629 90.4563 12.2839 90.4419 12.2264C90.4275 12.1689 90.406 12.1114 90.3772 12.0539C90.3629 11.9963 90.3557 11.946 90.3557 11.9029C90.3557 11.8454 90.37 11.7807 90.3988 11.7088C90.2838 11.4932 90.1832 11.2704 90.0969 11.0404C90.0106 10.796 89.9244 10.5588 89.8381 10.3288C89.7519 10.0844 89.6513 9.86158 89.5363 9.66032C89.4356 9.44469 89.299 9.2578 89.1265 9.09967V8.84091C89.0115 8.76904 88.9109 8.70435 88.8247 8.64684C88.7528 8.57497 88.6593 8.51028 88.5443 8.45277C88.3143 8.09338 88.0196 7.80587 87.6602 7.59024C87.3152 7.36023 86.999 7.13741 86.7114 6.92178C86.1508 6.97928 85.6836 7.15897 85.3098 7.46086C84.9504 7.76275 84.6198 8.10776 84.3179 8.4959C84.016 8.88404 83.7213 9.28656 83.4338 9.70345C83.1463 10.106 82.8157 10.451 82.4419 10.7385C82.3988 10.6379 82.2766 10.5588 82.0753 10.5013C81.8885 10.4294 81.716 10.4078 81.5578 10.4366C81.4141 10.7529 81.2991 11.0979 81.2128 11.4716C81.1265 11.8454 81.0403 12.2264 80.954 12.6145C80.8822 13.0026 80.7959 13.398 80.6953 13.8005C80.609 14.1886 80.494 14.5696 80.3503 14.9433C80.3646 15.0152 80.3718 15.1087 80.3718 15.2237C80.3718 15.3243 80.3646 15.4321 80.3503 15.5471C80.3359 15.6477 80.3143 15.734 80.2856 15.8059C80.2568 15.8634 80.2137 15.8706 80.1562 15.8274C80.2425 16.0431 80.264 16.2515 80.2209 16.4528C80.1778 16.654 80.1203 16.8553 80.0484 17.0565C79.9909 17.2578 79.9406 17.4734 79.8974 17.7034C79.8543 17.9335 79.8112 18.1778 79.7681 18.4366C79.8256 18.5372 79.8759 18.6379 79.919 18.7385C79.9621 18.8391 80.0196 18.8894 80.0915 18.8894C80.0628 18.9901 80.0556 19.0763 80.0699 19.1482C80.0843 19.2057 80.0987 19.2704 80.1131 19.3423C80.1418 19.3998 80.1634 19.4716 80.1778 19.5579C80.1921 19.6298 80.185 19.7232 80.1562 19.8382C80.3143 19.8095 80.4078 19.8454 80.4365 19.946C80.4796 20.0467 80.5156 20.1545 80.5443 20.2695C80.6737 20.2695 80.7672 20.2839 80.8247 20.3126C80.8965 20.3557 80.954 20.3917 80.9972 20.4204C81.0403 20.4636 81.0906 20.4995 81.1481 20.5282C81.2056 20.557 81.2991 20.557 81.4284 20.5282C81.5147 20.4707 81.5938 20.4061 81.6656 20.3342C81.7375 20.2623 81.8669 20.2407 82.0538 20.2695C82.2982 19.9532 82.4779 19.6513 82.5928 19.3638ZM85.5686 11.2776C85.7699 11.0907 85.9495 10.8822 86.1077 10.6522C86.3808 10.7385 86.6396 10.9182 86.884 11.1913C87.1427 11.4645 87.3008 11.8238 87.3584 12.2695C86.8696 12.4707 86.3521 12.6864 85.8058 12.9164C85.2595 13.132 84.7348 13.2686 84.2317 13.3261C84.2892 13.0098 84.3898 12.7367 84.5336 12.5067C84.6773 12.2623 84.8354 12.0467 85.0079 11.8598C85.1948 11.6585 85.3817 11.4645 85.5686 11.2776Z" fill="#D658B3"/>
<path fill-rule="evenodd" clip-rule="evenodd" d="M72.7979 37.3046C72.7835 37.204 72.7332 37.1321 72.6469 37.089C72.7188 37.0171 72.7476 36.9309 72.7332 36.8302C72.7188 36.7152 72.6829 36.593 72.6254 36.4637C72.5823 36.3199 72.5247 36.1761 72.4529 36.0324C72.381 35.8743 72.3235 35.7233 72.2804 35.5796C72.2372 35.5508 72.1941 35.5292 72.151 35.5149C72.1079 35.4861 72.0719 35.4574 72.0432 35.4286C71.9282 35.213 71.7844 35.0261 71.6119 34.868C71.4394 34.7098 71.2525 34.5589 71.0513 34.4151L70.4906 33.9839C70.3037 33.8401 70.1384 33.6748 69.9947 33.4879C70.2103 33.2148 70.4475 32.956 70.7062 32.7116C70.9794 32.4673 71.2238 32.2085 71.4394 31.9354C71.6694 31.6622 71.8563 31.3675 72 31.0513C72.1582 30.7206 72.23 30.3325 72.2157 29.8868C72.1869 29.8437 72.1438 29.815 72.0863 29.8006C72.0288 29.7862 72.0072 29.7431 72.0216 29.6712C72.0216 29.4843 71.9713 29.319 71.8707 29.1752C71.7844 29.0315 71.6694 28.9021 71.5257 28.7871C71.3963 28.6577 71.2525 28.5355 71.0944 28.4205C70.9506 28.3055 70.8284 28.1833 70.7278 28.054C70.6272 28.054 70.5265 28.018 70.4259 27.9461C70.3397 27.8743 70.2462 27.7952 70.1456 27.7089C70.045 27.6227 69.93 27.5436 69.8006 27.4717C69.6856 27.3999 69.5418 27.4286 69.3693 27.558C69.2112 27.443 69.0602 27.3783 68.9165 27.3639C68.7871 27.3352 68.6865 27.2777 68.6146 27.1914C68.5283 27.2345 68.4205 27.2633 68.2911 27.2777H67.9246C67.7952 27.2777 67.6658 27.2849 67.5364 27.2992C67.4214 27.2992 67.3208 27.3208 67.2345 27.3639C66.5876 27.3208 65.9839 27.3639 65.4232 27.4933C64.8626 27.6227 64.3019 27.7377 63.7413 27.8383C63.3963 27.9246 63.0369 28.018 62.6631 28.1186C62.2893 28.2049 61.9371 28.3271 61.6065 28.4852C61.2799 28.6272 60.9884 28.8113 60.732 29.0374C60.6778 28.8332 60.6386 28.5988 60.6146 28.3343C60.4565 28.1618 60.284 27.9893 60.0971 27.8168C59.9246 27.6442 59.7233 27.4861 59.4933 27.3424C59.177 27.4861 58.9758 27.6946 58.8895 27.9677C58.832 28.0827 58.832 28.1833 58.8895 28.2696L58.9327 28.5068C58.9327 28.7655 58.8105 28.938 58.5661 29.0243C58.5373 29.4268 58.4798 29.8581 58.3936 30.3181C58.3217 30.7637 58.2067 31.2166 58.0486 31.6766C57.9048 32.1366 57.7179 32.5823 57.4879 33.0135C57.2723 33.4304 57.0135 33.8042 56.7116 34.1348C56.4097 34.4655 56.1222 34.7602 55.8491 35.0189C55.576 35.2633 55.2885 35.4789 54.9866 35.6658C54.6847 35.8527 54.354 36.018 53.9946 36.1618C53.6496 36.2911 53.2615 36.4133 52.8302 36.5283L52.4637 36.5715L52.3343 36.2911C52.248 36.0611 52.1833 35.7808 52.1402 35.4502C52.1115 35.1052 52.1043 34.753 52.1186 34.3936C52.1474 34.0198 52.1977 33.6532 52.2696 33.2938C52.3558 32.9345 52.4708 32.6182 52.6146 32.3451C52.6002 32.1007 52.5427 31.8491 52.4421 31.5903C52.3558 31.3172 52.2552 31.0584 52.1402 30.8141C52.0827 30.6703 52.0252 30.5409 51.9677 30.4259C51.9246 30.2965 51.8886 30.1743 51.8599 30.0593C51.6442 29.9731 51.4789 29.8509 51.3639 29.6928C51.2633 29.5346 51.177 29.3909 51.1052 29.2615C51.0333 29.1034 50.9614 28.9884 50.8895 28.9165C50.8176 28.8446 50.6811 28.8159 50.4798 28.8302C50.4079 28.9309 50.3217 29.0459 50.2211 29.1752C50.1204 29.2903 49.9695 29.3693 49.7682 29.4124C49.682 29.6856 49.6173 29.9803 49.5742 30.2965C49.5454 30.4834 49.5095 30.6847 49.4663 30.9003C49.4232 31.1016 49.3801 31.3603 49.337 31.6766V31.9138C49.1213 32.5607 49.0063 33.301 48.992 34.1348C48.992 34.9542 49.0135 35.8599 49.0566 36.8518L49.0782 37.1968C49.107 37.2399 49.1429 37.2831 49.186 37.3262C49.2291 37.3549 49.2651 37.3909 49.2938 37.434L49.7682 37.9515L49.4017 38.0593C49.4879 38.2031 49.567 38.3469 49.6389 38.4906C49.7107 38.62 49.7826 38.7637 49.8545 38.9219C49.9695 39.1806 50.0845 39.425 50.1995 39.655C50.3289 39.8707 50.5158 40.036 50.7601 40.151C50.832 40.151 50.9111 40.1726 50.9973 40.2157C51.0836 40.2588 51.1483 40.3379 51.1914 40.4529C51.5939 40.496 51.9318 40.5176 52.2049 40.5176C52.363 40.5319 52.5283 40.5463 52.7008 40.5607C52.8877 40.5607 53.1034 40.5751 53.3477 40.6038C53.9515 40.3451 54.4906 40.1079 54.965 39.8922C55.4538 39.6766 55.885 39.4466 56.2588 39.2022C56.6469 38.9434 56.992 38.6559 57.2938 38.3397C57.5957 38.009 57.8832 37.6065 58.1564 37.1321L58.372 36.8734L58.6739 36.7871L58.7601 36.248L59.1914 36.399C59.2202 36.3702 59.2561 36.3127 59.2992 36.2265C59.3424 36.1402 59.3783 36.0755 59.4071 36.0324C59.4646 35.9318 59.5149 35.8383 59.558 35.7521C59.6155 35.6514 59.6802 35.5652 59.7521 35.4933C59.8814 35.2058 60.0539 34.868 60.2696 34.4798C60.4852 34.0917 60.708 33.646 60.938 33.1429C60.9955 32.7979 61.0459 32.4673 61.089 32.151C61.1273 31.94 61.1785 31.7163 61.2424 31.4798C61.5138 31.7116 61.8293 31.8994 62.1887 32.0432C62.3181 32 62.4619 31.9857 62.62 32C62.7925 32 62.9362 31.9425 63.0513 31.8275C63.08 31.6263 63.1375 31.4681 63.2238 31.3531C63.31 31.2238 63.4538 31.1519 63.655 31.1375C63.7125 31.3819 63.7197 31.5975 63.6766 31.7844C63.6335 31.9569 63.576 32.1294 63.5041 32.3019C63.4466 32.4601 63.3891 32.6254 63.3316 32.7979C63.2741 32.956 63.2525 33.1429 63.2669 33.3585C63.1375 33.7035 63.0441 33.9911 62.9866 34.2211C62.9434 34.4511 62.9003 34.6667 62.8572 34.868C62.8284 35.0692 62.7781 35.2777 62.7062 35.4933C62.6344 35.6946 62.5337 36.0108 62.4044 36.4421C62.2893 36.5283 62.2103 36.6362 62.1672 36.7655C62.124 36.8949 62.0881 37.0243 62.0593 37.1537C62.0306 37.2831 61.9947 37.4124 61.9515 37.5418C61.9084 37.6568 61.8365 37.7575 61.7359 37.8437L61.8221 38.0593C61.8509 38.1312 61.8725 38.2175 61.8868 38.3181C61.7287 38.3469 61.6424 38.4547 61.6281 38.6416C61.6137 38.8284 61.5921 39.0009 61.5634 39.1591C61.6209 39.346 61.7 39.5185 61.8006 39.6766C61.9156 39.8203 61.9443 39.9425 61.8868 40.0432C62.0018 40.0719 62.0881 40.151 62.1456 40.2804C62.2031 40.3954 62.2175 40.4816 62.1887 40.5391C62.3037 40.5679 62.39 40.6038 62.4475 40.6469C62.5194 40.6901 62.5769 40.7332 62.62 40.7763C62.6775 40.8338 62.7278 40.8913 62.7709 40.9488C62.8284 41.0063 62.9003 41.0566 62.9866 41.0998C63.0584 41.0279 63.1303 40.9991 63.2022 41.0135C63.2885 41.0279 63.4106 41.0495 63.5688 41.0782C63.6838 41.0351 63.7772 40.956 63.8491 40.841C63.9353 40.726 64.0144 40.611 64.0863 40.496C64.2157 40.5823 64.3666 40.6757 64.5391 40.7763C64.726 40.8913 64.8985 40.9776 65.0566 41.0351C65.2292 41.107 65.3729 41.1357 65.4879 41.1213C65.6029 41.1213 65.6676 41.0495 65.682 40.9057C65.7395 40.9345 65.7682 40.9704 65.7682 41.0135C65.7826 41.071 65.8186 41.1141 65.8761 41.1429C66.1492 41.0854 66.4439 41.0207 66.7602 40.9488C67.0908 40.8913 67.3136 40.7835 67.4286 40.6254C68.1761 40.5104 68.8877 40.3019 69.5634 40C70.2534 39.6982 70.9219 39.3531 71.5688 38.965C71.7413 38.8212 71.8491 38.7278 71.8922 38.6847C71.9497 38.6416 72 38.5912 72.0432 38.5337C72.0863 38.4619 72.1582 38.3612 72.2588 38.2318C72.3594 38.1025 72.5391 37.8725 72.7979 37.5418C72.8123 37.4843 72.8123 37.4053 72.7979 37.3046ZM66.6523 30.0809C67.3855 29.9228 68.1186 29.8581 68.8518 29.8868C68.4924 30.3181 68.0971 30.7134 67.6658 31.0728C67.2345 31.4178 66.7386 31.7053 66.1779 31.9354C66.0342 31.6622 65.8329 31.4466 65.5742 31.2885C65.3298 31.1303 65.0854 30.9506 64.841 30.7494C65.3298 30.4619 65.9336 30.239 66.6523 30.0809ZM69.3693 36.4205C69.2543 36.5068 69.1752 36.6218 69.1321 36.7655C68.7727 36.8949 68.4277 37.0387 68.0971 37.1968C67.7808 37.3406 67.4502 37.4843 67.1052 37.6281C66.7745 37.7718 66.4295 37.9084 66.0701 38.0378C65.7107 38.1528 65.3154 38.239 64.8841 38.2965C65.0423 37.8365 65.2076 37.3621 65.3801 36.8734C65.5526 36.3846 65.7179 35.9318 65.8761 35.5149C66.1923 35.4717 66.5014 35.3999 66.8033 35.2992C67.1195 35.1986 67.443 35.1267 67.7736 35.0836C68.1186 35.0261 68.478 35.0261 68.8518 35.0836C69.2399 35.1267 69.664 35.2705 70.124 35.5149C70.1384 35.6874 70.1025 35.8239 70.0162 35.9246C69.93 36.0108 69.8293 36.0971 69.7143 36.1833C69.5993 36.2552 69.4843 36.3343 69.3693 36.4205Z" fill="#D658B3"/>
<path d="M41.3801 40.7548C41.8545 40.6254 42.2929 40.496 42.6955 40.3666L43.1914 40.2372C43.3783 40.2372 43.558 40.2301 43.7305 40.2157C43.9174 40.2013 44.0971 40.1797 44.2696 40.151L44.7871 40.1079C44.9596 40.0935 45.1249 40.0863 45.2831 40.0863C45.6999 40.0863 46.1025 40.151 46.4906 40.2804C46.7781 40.2085 47.0225 40.1726 47.2238 40.1726H47.3531C47.4106 40.1726 47.4969 40.1654 47.6119 40.151C47.6838 40.0791 47.7557 40.0144 47.8275 39.9569C47.9138 39.8994 48.0647 39.8491 48.2804 39.806L48.2372 39.5688C48.2947 39.5113 48.3235 39.425 48.3235 39.31C48.3379 39.2669 48.2947 39.1806 48.1941 39.0513L48.0432 38.124C47.8994 38.009 47.7485 37.9228 47.5903 37.8653C47.4466 37.7934 47.2956 37.7287 47.1375 37.6712C46.965 37.6137 46.7997 37.549 46.6415 37.4771C46.4834 37.4053 46.3181 37.2903 46.1456 37.1321C46.0737 37.1177 45.9875 37.1106 45.8868 37.1106H45.7143C45.6856 37.0962 45.6065 37.0531 45.4771 36.9812C45.3046 37.0099 45.1177 37.0243 44.9165 37.0243H44.3127C43.8096 37.0387 43.2992 37.0674 42.7817 37.1106C42.2786 37.1537 41.8114 37.2903 41.3801 37.5203C41.2076 37.4771 41.0566 37.4556 40.9273 37.4556H40.7332C40.6757 37.4556 40.611 37.4699 40.5391 37.4987C40.5679 36.9668 40.6469 36.4924 40.7763 36.0755C40.9201 35.6586 41.0782 35.2417 41.2507 34.8248C41.3513 34.5948 41.4448 34.3648 41.531 34.1348C41.6317 33.9048 41.7035 33.6029 41.7467 33.2292C41.8185 33.1717 41.8689 33.107 41.8976 33.0351C41.9407 32.9488 41.9767 32.8698 42.0054 32.7979C42.0342 32.726 42.0557 32.6613 42.0701 32.6038C42.0989 32.5463 42.142 32.4816 42.1995 32.4097C42.257 32.0935 42.3289 31.8275 42.4151 31.6119C42.5014 31.3963 42.5948 31.1806 42.6955 30.965C42.7817 30.7637 42.8608 30.5625 42.9327 30.3612C43.0189 30.16 43.098 29.9156 43.1698 29.6281C43.213 29.6281 43.2777 29.5634 43.3639 29.434C43.407 29.1177 43.3711 28.8662 43.2561 28.6793C43.1411 28.478 43.0045 28.284 42.8464 28.0971L42.7601 28.0108C42.7314 27.9677 42.6595 27.9102 42.5445 27.8383C42.3145 27.8383 42.027 27.7808 41.682 27.6658C41.337 27.5364 41.0351 27.4071 40.7763 27.2777C40.7188 27.292 40.6469 27.3136 40.5607 27.3424C40.5032 27.3711 40.4169 27.4214 40.3019 27.4933C40.1294 28.2265 39.9353 28.9093 39.7197 29.5418C39.5041 30.1743 39.2741 30.8141 39.0297 31.461C38.8859 31.8347 38.7422 32.2157 38.5984 32.6038C38.469 32.9776 38.3037 33.4376 38.1025 33.9839C38.0306 34.1133 37.9659 34.257 37.9084 34.4151C37.8509 34.5733 37.8509 34.717 37.9084 34.8464C37.7934 35.0045 37.6999 35.1914 37.6281 35.4071C37.5706 35.6227 37.5131 35.8455 37.4556 36.0755C37.4412 36.1474 37.4268 36.2121 37.4124 36.2696C37.4124 36.3271 37.3981 36.3846 37.3693 36.4421C37.2974 36.7009 37.2471 36.974 37.2184 37.2615C37.204 37.549 37.2112 37.8365 37.2399 38.124C37.2831 38.3972 37.3549 38.6703 37.4556 38.9434C37.5562 39.2022 37.6928 39.4322 37.8653 39.6335C37.8796 39.7485 37.9012 39.8419 37.93 39.9138L38.0593 40.0863C38.1168 40.1438 38.1815 40.2516 38.2534 40.4097C38.6703 40.7691 39.2381 40.9488 39.9569 40.9488C40.4313 40.9488 40.9057 40.8841 41.3801 40.7548Z" fill="#D658B3"/>
<path d="M33.7682 40.6254C34.1132 40.6541 34.4008 40.6613 34.6308 40.6469C34.8752 40.4601 35.1195 40.2804 35.3639 40.1079C35.6083 39.921 35.8311 39.7197 36.0324 39.5041C36.0755 39.2597 36.0611 39.0584 35.9893 38.9003C35.9174 38.7278 35.8239 38.5769 35.7089 38.4475C35.5939 38.3037 35.4645 38.1743 35.3208 38.0593C35.1914 37.93 35.0764 37.7934 34.9758 37.6496C33.8976 37.6353 32.8194 37.5921 31.7413 37.5203C30.6775 37.4484 29.6712 37.2687 28.7224 36.9812C28.6362 36.823 28.5571 36.6649 28.4852 36.5068C28.4133 36.3343 28.363 36.1402 28.3343 35.9246C28.4061 35.8096 28.478 35.7017 28.5499 35.6011C28.6362 35.4861 28.6721 35.328 28.6577 35.1267C28.8877 34.9111 29.1034 34.6955 29.3046 34.4798C29.5203 34.2498 29.7431 34.0342 29.9731 33.8329C30.2175 33.6173 30.469 33.4304 30.7278 33.2723C31.0009 33.0998 31.31 32.9632 31.655 32.8626C32.0432 32.4313 32.5391 32.1079 33.1429 31.8922C33.761 31.6622 34.4151 31.4538 35.1052 31.2669C35.407 31.1806 35.6874 31.0081 35.9461 30.7494C36.2049 30.4906 36.3846 30.2103 36.4852 29.9084C36.5858 29.6065 36.5787 29.319 36.4636 29.0459C36.3486 28.7584 36.0755 28.5499 35.6442 28.4205C35.6442 28.3343 35.6586 28.2768 35.6874 28.248C35.7161 28.2049 35.7017 28.1474 35.6442 28.0755C35.4717 28.0611 35.3424 28.0252 35.2561 27.9677C35.1842 27.8958 35.0908 27.8671 34.9758 27.8814C34.9902 27.8527 35.0117 27.8024 35.0405 27.7305C35.0692 27.6586 35.0477 27.6227 34.9758 27.6227C34.947 27.6946 34.9111 27.7305 34.868 27.7305C34.8392 27.7161 34.8033 27.6874 34.7601 27.6442C34.717 27.6011 34.6667 27.558 34.6092 27.5149C34.5661 27.4717 34.5086 27.4574 34.4367 27.4717C34.3217 27.5149 34.1995 27.558 34.0701 27.6011C33.9407 27.6299 33.8401 27.5867 33.7682 27.4717C33.682 27.6155 33.5598 27.7305 33.4017 27.8168C33.2579 27.903 33.0998 27.9893 32.9273 28.0755C32.7691 28.1474 32.611 28.2265 32.4529 28.3127C32.2947 28.3846 32.1582 28.4852 32.0432 28.6146C31.7413 28.6865 31.4753 28.7871 31.2453 28.9165C31.0153 29.0459 30.7925 29.1896 30.5769 29.3478C30.3612 29.4915 30.1384 29.6353 29.9084 29.779C29.6928 29.9084 29.434 30.009 29.1321 30.0809C29.0459 30.1959 28.9452 30.2965 28.8302 30.3828C28.7296 30.4547 28.6218 30.5337 28.5068 30.62C28.4061 30.6919 28.3055 30.7781 28.2049 30.8787C28.1186 30.965 27.9821 31.0513 27.7952 31.1375C27.3783 31.5975 26.9686 32.0647 26.5661 32.5391C26.1779 32.9991 25.876 33.5526 25.6604 34.1995C25.646 34.6308 25.6604 35.0836 25.7035 35.558C25.7467 36.018 25.8329 36.4708 25.9623 36.9165C26.0917 37.3621 26.2642 37.7862 26.4798 38.1887C26.6955 38.5769 26.9758 38.9075 27.3208 39.1806C27.5652 39.2381 27.7592 39.3388 27.903 39.4825C28.0468 39.6119 28.1905 39.7557 28.3343 39.9138C28.9955 40.1438 29.7215 40.3379 30.5122 40.496C31.3028 40.6541 32.0791 40.7476 32.841 40.7763C33.1285 40.6469 33.4376 40.5966 33.7682 40.6254Z" fill="#D658B3"/>
<path d="M77.7088 28.5132C77.4612 28.5679 77.2908 28.6414 77.1978 28.7338C77.088 28.8275 77.0221 28.9429 77 29.0798C76.9599 29.2015 76.9545 29.337 76.984 29.4866C77.0135 29.6361 77.0346 29.7863 77.0473 29.9372C77.4888 30.187 78.0819 30.3395 78.8264 30.3948C79.5695 30.4332 80.3439 30.4437 81.1495 30.4263C81.9538 30.392 82.7315 30.3431 83.4828 30.2795C84.2341 30.216 84.829 30.191 85.2673 30.2046C86.1774 30.2289 86.8871 30.2703 87.3965 30.3285C87.8877 30.3714 88.2288 30.427 88.4195 30.4953C88.7353 30.4517 88.9808 30.3718 89.1559 30.2557C89.331 30.1395 89.4714 30.0094 89.5769 29.8654C89.681 29.7045 89.767 29.5284 89.8349 29.3368C89.9027 29.1453 89.9866 28.944 90.0864 28.7329C90.0083 28.6043 89.9753 28.4129 89.9874 28.1585C89.9995 27.9041 90.0834 27.7028 90.239 27.5545C90.104 27.5491 89.996 27.4653 89.9151 27.3033C89.8327 27.1244 89.8213 26.9903 89.881 26.9008C89.6082 26.8563 89.3208 26.8384 89.0189 26.847C88.6988 26.8403 88.3878 26.8413 88.0859 26.8499C87.784 26.8586 87.498 26.8575 87.228 26.8465C86.94 26.8202 86.6915 26.7652 86.4826 26.6816C85.6464 26.7354 84.7845 26.783 83.8968 26.8243C82.9924 26.867 82.1464 26.9048 81.3589 26.9376C81.0821 27.0455 80.7525 27.1241 80.3699 27.1733C79.9859 27.2058 79.6124 27.2627 79.2493 27.3441C78.8849 27.4087 78.5588 27.5292 78.271 27.7056C77.9833 27.8819 77.7958 28.1511 77.7088 28.5132Z" fill="#D658B3"/>
<path d="M20.9897 28.7338C20.8966 28.6414 20.7263 28.5679 20.4787 28.5132C20.3916 28.1511 20.2042 27.8819 19.9165 27.7056C19.6287 27.5292 19.3026 27.4087 18.9381 27.3441C18.5751 27.2627 18.2016 27.2058 17.8176 27.1733C17.435 27.1241 17.1053 27.0455 16.8286 26.9376C16.0411 26.9048 15.1951 26.867 14.2907 26.8243C13.403 26.783 12.541 26.7354 11.7048 26.6816C11.496 26.7652 11.2475 26.8202 10.9594 26.8465C10.6895 26.8575 10.4035 26.8586 10.1016 26.8499C9.79963 26.8413 9.48863 26.8403 9.16858 26.847C8.86664 26.8384 8.57927 26.8563 8.30646 26.9008C8.36615 26.9903 8.3548 27.1244 8.27241 27.3033C8.19145 27.4653 8.08347 27.5491 7.94849 27.5545C8.10409 27.7028 8.18795 27.9041 8.20006 28.1585C8.21217 28.4129 8.17916 28.6043 8.10103 28.7329C8.20088 28.944 8.28474 29.1453 8.35261 29.3368C8.42048 29.5284 8.50647 29.7045 8.61057 29.8654C8.71609 30.0094 8.85642 30.1395 9.03156 30.2557C9.2067 30.3718 9.45217 30.4517 9.76797 30.4953C9.95871 30.427 10.2997 30.3714 10.791 30.3285C11.3004 30.2703 12.0101 30.2289 12.9202 30.2046C13.3585 30.191 13.9533 30.216 14.7046 30.2795C15.4559 30.3431 16.2337 30.392 17.0379 30.4263C17.8436 30.4437 18.6179 30.4332 19.3611 30.3948C20.1056 30.3395 20.6986 30.187 21.1401 29.9372C21.1529 29.7863 21.174 29.6361 21.2035 29.4866C21.2329 29.337 21.2276 29.2015 21.1874 29.0798C21.1654 28.9429 21.0995 28.8275 20.9897 28.7338Z" fill="#D658B3"/>
</svg>
